<svg width="21" height="21" viewBox="0 0 21 21" fill="none" xmlns="http://www.w3.org/2000/svg">
<path d="M20.6745 10.3372C20.6745 16.0465 16.0465 20.6745 10.3372 20.6745C4.62803 20.6745 0 16.0465 0 10.3372C0 4.62803 4.62803 0 10.3372 0C16.0465 0 20.6745 4.62803 20.6745 10.3372Z" fill="white"/>
<path d="M13.4002 9.53484L13.228 10.9178C13.1989 11.1488 13.0032 11.3226 12.7712 11.3226H10.5313V17.1046C10.2951 17.126 10.0558 17.1369 9.81383 17.1369C9.27272 17.1369 8.74462 17.0828 8.23421 16.9798V11.3226H6.51151C6.35334 11.3226 6.2243 11.193 6.2243 11.0343V9.30383C6.2243 9.14514 6.35334 9.01558 6.51151 9.01558H8.23421V6.42035C8.23421 4.82772 9.51986 3.53687 11.1062 3.53687H13.1161C13.2743 3.53687 13.4034 3.66642 13.4034 3.82511V5.55561C13.4034 5.7143 13.2743 5.84386 13.1161 5.84386H11.6801C11.0459 5.84386 10.5318 6.35999 10.5318 6.99735V9.0161H12.9439C13.2207 9.0161 13.4346 9.2596 13.4008 9.53536L13.4002 9.53484Z" fill="#39AEB2"/>
</svg>
