<svg width="21" height="21" viewBox="0 0 21 21" fill="none" xmlns="http://www.w3.org/2000/svg">
<path d="M20.6745 10.3372C20.6745 16.0465 16.0465 20.6745 10.3372 20.6745C4.62803 20.6745 0 16.0465 0 10.3372C0 4.62804 4.62803 0 10.3372 0C16.0465 0 20.6745 4.62804 20.6745 10.3372Z" fill="white"/>
<path d="M12.3862 13.0007V7.87889C12.3862 7.87889 12.9637 8.84144 15.0511 8.90023C15.1625 8.90335 15.2546 8.81178 15.2546 8.70044V7.25297C15.2546 7.14527 15.1687 7.05994 15.061 7.0537C13.4418 6.96213 12.6729 5.72018 12.5974 4.58125C12.5906 4.47563 12.498 4.39551 12.3924 4.39551H10.7415C10.6317 4.39551 10.5422 4.48448 10.5422 4.59478V12.7369C10.5422 13.6214 9.86638 14.3909 8.98291 14.4325C7.97302 14.4804 7.15199 13.6136 7.27686 12.5891C7.36531 11.8654 7.94596 11.2728 8.66813 11.1724C8.81173 11.1526 8.95169 11.151 9.08749 11.1661C9.20768 11.1796 9.3133 11.0902 9.3133 10.9694V9.51834C9.3133 9.41532 9.23474 9.32583 9.13172 9.31959C8.92464 9.30606 8.71236 9.31074 8.49695 9.3352C6.90433 9.51574 5.6192 10.8045 5.44282 12.3977C5.21024 14.4991 6.84918 16.278 8.90383 16.278C10.8274 16.278 12.3867 14.7187 12.3867 12.7952" fill="#39AEB2"/>
</svg>
