<svg width="21" height="21" viewBox="0 0 21 21" fill="none" xmlns="http://www.w3.org/2000/svg">
<g clip-path="url(#clip0_40_1176)">
<path d="M9.74597 0.0175006C17.7926 -0.425674 23.4661 7.74915 19.9249 15.0982C16.3564 22.5043 5.959 23.0588 1.59314 16.0896C-2.5822 9.42464 1.90752 0.448998 9.74597 0.0175006ZM15.49 8.36205C15.0328 6.6252 13.8251 5.27314 12.0526 4.85006C10.2132 4.41095 7.99192 4.76452 6.74794 6.28847C4.98252 8.45139 5.0107 13.1017 7.07154 15.0751C8.77599 16.7069 12.1469 16.7824 13.8931 15.1835C15.6073 13.6142 15.323 10.9065 13.112 10.0123C13.0765 9.22369 12.8258 8.41527 12.2001 7.90204C11.6586 7.45778 10.8306 7.322 10.1511 7.4203C9.48091 7.51725 8.7955 7.90313 8.46377 8.49837L9.27765 9.06483C9.69285 8.45927 10.4864 8.30176 11.1645 8.50543C11.6998 8.66619 11.9981 9.15227 12.0518 9.69103C10.8051 9.52375 8.94375 9.57263 8.43098 10.9855C7.56425 13.3738 11.2564 14.557 12.5773 12.5635C12.8711 12.1203 12.9578 11.7084 13.0543 11.1968C13.0597 11.1683 13.0399 11.1395 13.0936 11.1561C13.3145 11.2242 13.6904 11.6815 13.7945 11.8914C14.5853 13.4871 13.0527 14.9429 11.5653 15.2109C8.54535 15.7551 6.67151 14.0728 6.50348 11.0876C6.32786 7.9702 7.58187 5.39208 11.0908 5.73179C12.8258 5.89961 14.0628 6.90082 14.4899 8.60427L15.4897 8.36205H15.49Z" fill="white"/>
<path d="M15.4899 8.36191L14.4901 8.60413C14.0627 6.90068 12.8258 5.89974 11.091 5.73165C7.58206 5.39193 6.32805 7.97006 6.50367 11.0875C6.6717 14.0724 8.54554 15.7547 11.5655 15.2107C13.0529 14.9427 14.5852 13.4869 13.7947 11.8913C13.6906 11.6814 13.3147 11.2241 13.0938 11.1559C13.0404 11.1393 13.0599 11.1681 13.0545 11.1966C12.9577 11.7083 12.871 12.1199 12.5775 12.5634C11.2566 14.5568 7.56444 13.3737 8.43117 10.9854C8.94394 9.57249 10.8056 9.52361 12.052 9.69089C11.9983 9.15213 11.6999 8.66605 11.1647 8.50529C10.4866 8.30189 9.69304 8.45912 9.27783 9.06469L8.46396 8.49823C8.79569 7.90298 9.4811 7.51711 10.1513 7.42016C10.831 7.32186 11.659 7.45764 12.2002 7.9019C12.8258 8.41513 13.0767 9.22354 13.1122 10.0121C15.3232 10.9064 15.6075 13.614 13.8933 15.1833C12.1469 16.7819 8.7759 16.7067 7.07173 15.075C5.01089 13.1016 4.98271 8.45125 6.74813 6.28833C7.99211 4.76437 10.2134 4.41081 12.0528 4.84991C13.8253 5.27299 15.0329 6.62505 15.4902 8.36191H15.4899ZM12.0788 10.7491C11.3547 10.6508 10.0212 10.4939 9.50847 11.1426C9.41036 11.2667 9.35697 11.3873 9.3445 11.5478C9.26482 12.5734 10.7335 12.7469 11.4113 12.3168C11.8821 12.0181 12.0783 11.2773 12.0791 10.7489L12.0788 10.7491Z" fill="#39AEB2"/>
<path d="M12.0788 10.7491C12.078 11.2775 11.8818 12.0183 11.411 12.317C10.7332 12.7472 9.26456 12.5737 9.34424 11.548C9.35671 11.3875 9.4101 11.2669 9.50821 11.1428C10.0213 10.4941 11.3547 10.6511 12.0786 10.7494L12.0788 10.7491Z" fill="white"/>
</g>
<defs>
<clipPath id="clip0_40_1176">
<rect width="21" height="21" fill="white"/>
</clipPath>
</defs>
</svg>
