<svg width="21" height="21" viewBox="0 0 21 21" fill="none" xmlns="http://www.w3.org/2000/svg">
<path d="M10.2992 0.011458C19.0865 -0.122517 24.2046 9.99623 18.7568 16.9661C14.2083 22.7854 5.26805 22.1905 1.49193 15.8683C-2.62259 8.97877 2.32116 0.133244 10.2992 0.011458ZM13.9056 9.45932C13.88 8.34985 14.0678 7.24521 13.4127 6.27558C12.0284 4.22701 8.19447 4.35754 7.30206 6.80688C6.98887 7.66606 7.11924 8.5691 7.09461 9.46591C6.69497 9.40088 6.18746 9.16283 5.85197 9.51576C5.44475 9.94392 5.81291 10.4042 6.24522 10.6024C6.64364 10.7852 7.20358 10.7769 6.95758 11.3898C6.72932 11.958 6.10488 12.5806 5.54988 12.8338C5.17864 13.0033 4.54423 13.019 4.49674 13.5256C4.43564 14.1786 5.54 14.4184 6.02414 14.4337C6.05065 14.7863 6.23481 15.1021 6.61228 15.1373C7.24442 15.1961 7.86925 14.9878 8.45233 15.3087C9.59732 15.9383 10.1055 16.5233 11.5281 15.9186C12.0315 15.7048 12.5785 15.1691 13.0874 15.1287C13.7426 15.0764 14.9279 15.4239 14.9548 14.4284C15.3845 14.3565 15.8817 14.3285 16.2414 14.0531C16.6789 13.7182 16.567 13.2096 16.0649 13.0209C15.2262 12.7053 14.7889 12.5722 14.2624 11.7709C13.5101 10.6256 14.4357 10.9038 15.0291 10.4302C15.3861 10.1453 15.4517 9.64034 15.0174 9.40256C14.6555 9.20429 14.2729 9.412 13.9052 9.45932L13.9056 9.45932Z" fill="white"/>
<path d="M13.9056 9.45926C14.2732 9.41194 14.6558 9.20423 15.0177 9.40249C15.452 9.64061 15.3864 10.1453 15.0294 10.4301C14.436 10.9034 13.5105 10.6255 14.2627 11.7708C14.7892 12.5722 15.2265 12.7056 16.0653 13.0208C16.5673 13.2096 16.6792 13.7184 16.2417 14.053C15.882 14.3285 15.3848 14.3561 14.9551 14.4283C14.9286 15.4238 13.7429 15.0764 13.0877 15.1287C12.5788 15.1691 12.0318 15.7047 11.5284 15.9186C10.1055 16.5232 9.59729 15.9382 8.45263 15.3086C7.86956 14.9878 7.24473 15.1964 6.61259 15.1373C6.23512 15.1021 6.05096 14.7862 6.02445 14.4336C5.54031 14.4183 4.43561 14.1785 4.49705 13.5256C4.54453 13.0189 5.17895 13.0032 5.55018 12.8337C6.10485 12.5806 6.72962 11.958 6.95788 11.3897C7.20388 10.7765 6.64394 10.7851 6.24553 10.6023C5.81355 10.4041 5.44539 9.94385 5.85228 9.5157C6.18777 9.16276 6.69528 9.40081 7.09492 9.46585C7.11955 8.56904 6.98917 7.666 7.30237 6.80682C8.19511 4.35714 12.0287 4.22662 13.413 6.27551C14.0681 7.24514 13.88 8.34979 13.9059 9.45926L13.9056 9.45926Z" fill="#39AEB2"/>
</svg>
