<svg width="21" height="21" viewBox="0 0 21 21" fill="none" xmlns="http://www.w3.org/2000/svg">
<path d="M20.6745 10.3372C20.6745 16.0465 16.0465 20.6745 10.3372 20.6745C4.62804 20.6745 0 16.0465 0 10.3372C0 4.62803 4.62804 0 10.3372 0C16.0465 0 20.6745 4.62803 20.6745 10.3372Z" fill="white"/>
<path d="M6.67644 7.57401C7.41177 7.57401 8.00788 6.9779 8.00788 6.24257C8.00788 5.50724 7.41177 4.91113 6.67644 4.91113C5.9411 4.91113 5.345 5.50724 5.345 6.24257C5.345 6.9779 5.9411 7.57401 6.67644 7.57401Z" fill="#39AEB2"/>
<path d="M7.68634 8.46118H5.66603C5.61114 8.46118 5.56665 8.50568 5.56665 8.56056V15.0185C5.56665 15.0734 5.61114 15.1179 5.66603 15.1179H7.68634C7.74122 15.1179 7.78571 15.0734 7.78571 15.0185V8.56056C7.78571 8.50568 7.74122 8.46118 7.68634 8.46118Z" fill="#39AEB2"/>
<path d="M15.3305 10.9024V14.6745C15.3305 14.9185 15.1307 15.1183 14.8867 15.1183H13.5553C13.3113 15.1183 13.1115 14.9185 13.1115 14.6745V11.5678C13.1115 10.9554 12.6146 10.4586 12.0022 10.4586C11.3898 10.4586 10.8929 10.9554 10.8929 11.5678V14.6745C10.8929 14.9185 10.6931 15.1183 10.4491 15.1183H9.11767C8.87365 15.1183 8.67386 14.9185 8.67386 14.6745V8.90496C8.67386 8.66094 8.87365 8.46114 9.11767 8.46114H10.4491C10.6931 8.46114 10.8929 8.66094 10.8929 8.90496V9.18904C11.3367 8.61412 12.0714 8.2395 12.8898 8.2395C14.1146 8.2395 15.3305 9.12712 15.3305 10.9024Z" fill="#39AEB2"/>
</svg>
