<svg width="21" height="21" viewBox="0 0 21 21" fill="none" xmlns="http://www.w3.org/2000/svg">
<path d="M20.6745 10.3372C20.6745 16.0465 16.0465 20.6745 10.3372 20.6745C4.62804 20.6745 0 16.0465 0 10.3372C0 4.62803 4.62804 0 10.3372 0C16.0465 0 20.6745 4.62803 20.6745 10.3372Z" fill="white"/>
<path d="M13.1421 4.91479H7.53284C6.08745 4.91479 4.91522 6.08702 4.91522 7.5324V13.1417C4.91522 14.5871 6.08745 15.7593 7.53284 15.7593H13.1421C14.5875 15.7593 15.7598 14.5871 15.7598 13.1417V7.5324C15.7598 6.08702 14.5875 4.91479 13.1421 4.91479ZM14.8248 12.9544C14.8248 13.9867 13.9871 14.8244 12.9548 14.8244H7.71962C6.68735 14.8244 5.84968 13.9867 5.84968 12.9544V7.71919C5.84968 6.68692 6.68735 5.84925 7.71962 5.84925H12.9548C13.9871 5.84925 14.8248 6.68692 14.8248 7.71919V12.9544Z" fill="#39AEB2"/>
<path d="M10.343 7.53223C8.79509 7.53223 7.53857 8.78874 7.53857 10.3366C7.53857 11.8845 8.79509 13.141 10.343 13.141C11.8909 13.141 13.1474 11.8845 13.1474 10.3366C13.1474 8.78874 11.8909 7.53223 10.343 7.53223ZM10.343 12.2066C9.31279 12.2066 8.47302 11.3668 8.47302 10.3366C8.47302 9.30644 9.31279 8.46668 10.343 8.46668C11.3732 8.46668 12.2129 9.30644 12.2129 10.3366C12.2129 11.3668 11.3732 12.2066 10.343 12.2066Z" fill="#39AEB2"/>
<path d="M13.3347 7.90643C13.0256 7.90643 12.7738 7.6546 12.7738 7.34555C12.7738 7.03649 13.0256 6.78467 13.3347 6.78467C13.6437 6.78467 13.8956 7.03649 13.8956 7.34555C13.8956 7.6546 13.6437 7.90643 13.3347 7.90643Z" fill="#39AEB2"/>
</svg>
