<svg width="21" height="21" viewBox="0 0 21 21" fill="none" xmlns="http://www.w3.org/2000/svg">
<path d="M20.6745 10.3372C20.6745 16.0465 16.0465 20.6745 10.3372 20.6745C4.62804 20.6745 0 16.0465 0 10.3372C0 4.62803 4.62804 0 10.3372 0C16.0465 0 20.6745 4.62803 20.6745 10.3372Z" fill="white"/>
<path d="M14.792 5.95679H5.88249C5.00215 5.95679 4.2883 6.67063 4.2883 7.55045V13.1228C4.2883 14.0032 5.00215 14.7165 5.88249 14.7165H14.792C15.6719 14.7165 16.3857 14.0032 16.3857 13.1228V7.55045C16.3857 6.67063 15.6719 5.95679 14.792 5.95679ZM11.7686 10.7217L9.29094 11.96C9.00478 12.103 8.66867 11.8954 8.66867 11.576V9.09938C8.66867 8.77991 9.0053 8.57232 9.29094 8.71488L11.7686 9.95318C12.0849 10.1114 12.0849 10.5635 11.7686 10.7217Z" fill="#39AEB2"/>
</svg>
